<?xml version="1.0" encoding="UTF-8"?>
<svg version="1.1" xmlns="http://www.w3.org/2000/svg" width="500" height="500">
<path d="M0 0 C0.83778992 0.0028299 1.67557983 0.00565979 2.53875732 0.00857544 C5.20827663 0.01974901 7.8774575 0.04484829 10.546875 0.0703125 C12.35937015 0.08034596 14.17187056 0.08947117 15.984375 0.09765625 C20.42200493 0.1196791 24.85938263 0.15418946 29.296875 0.1953125 C29.791875 1.1853125 29.791875 1.1853125 30.296875 2.1953125 C30.626875 1.5353125 30.956875 0.8753125 31.296875 0.1953125 C35.17173135 0.10779837 39.04633143 0.05474815 42.921875 0.0078125 C44.56349609 -0.02989258 44.56349609 -0.02989258 46.23828125 -0.06835938 C53.81117202 -0.13720384 58.40485496 0.49609379 64.109375 5.8203125 C66.95646058 9.54271566 67.75220513 13.57086586 67.296875 18.1953125 C65.18688067 24.8609764 61.98620074 30.27113138 58.1862793 36.09204102 C56.14291388 39.23565194 54.26328313 42.26405503 52.61328125 45.640625 C51.05976446 48.73151815 49.89058537 50.89592388 47.296875 53.1953125 C42.19697078 54.40151391 37.50742269 54.48366971 32.296875 54.1953125 C32.98067046 50.24523191 34.08530683 47.56074232 36.296875 44.1953125 C33.326875 43.7003125 33.326875 43.7003125 30.296875 43.1953125 C26.006875 30.9853125 21.716875 18.7753125 17.296875 6.1953125 C16.966875 7.8453125 16.636875 9.4953125 16.296875 11.1953125 C9.036875 11.5253125 1.776875 11.8553125 -5.703125 12.1953125 C-6.363125 15.1653125 -7.023125 18.1353125 -7.703125 21.1953125 C0.216875 21.1953125 8.136875 21.1953125 16.296875 21.1953125 C16.296875 24.8253125 16.296875 28.4553125 16.296875 32.1953125 C8.376875 32.1953125 0.456875 32.1953125 -7.703125 32.1953125 C-7.703125 39.1253125 -7.703125 46.0553125 -7.703125 53.1953125 C-17.703125 54.1953125 -17.703125 54.1953125 -20.703125 53.1953125 C-20.7778144 48.09077072 -20.83197961 42.98655375 -20.86791992 37.8815918 C-20.88291769 36.14846244 -20.90332272 34.41537046 -20.92944336 32.68237305 C-20.96622703 30.17747725 -20.98294151 27.6730873 -20.99609375 25.16796875 C-21.01157761 24.40509048 -21.02706146 23.64221222 -21.04301453 22.85621643 C-21.04513679 15.92456848 -19.75557053 9.6687725 -15.265625 4.2578125 C-10.22557487 0.20118679 -6.39451186 -0.08143497 0 0 Z M33.296875 11.1953125 C35.44281055 19.74416144 38.2462877 27.93581725 41.296875 36.1953125 C44.70706177 32.93826019 47.53618175 29.71010279 50.109375 25.7578125 C50.71394531 24.85160156 51.31851563 23.94539063 51.94140625 23.01171875 C53.51058347 19.75126694 53.7836708 17.77006547 53.296875 14.1953125 C51.76516601 12.19962724 50.8994963 11.30326893 48.39575195 10.85473633 C47.69925537 10.87044678 47.00275879 10.88615723 46.28515625 10.90234375 C45.52783203 10.91201172 44.77050781 10.92167969 43.99023438 10.93164062 C43.20455078 10.95677734 42.41886719 10.98191406 41.609375 11.0078125 C40.81208984 11.02134766 40.01480469 11.03488281 39.19335938 11.04882812 C37.22757533 11.08414161 35.26213918 11.13794803 33.296875 11.1953125 Z " fill="#FBA709" transform="translate(347.703125,265.8046875)"/>
<path d="M0 0 C-3.09769972 1.75459361 -5.74926375 2.40530571 -9.26953125 2.859375 C-10.8321167 3.07339966 -10.8321167 3.07339966 -12.42626953 3.29174805 C-13.54372559 3.44297119 -14.66118164 3.59419434 -15.8125 3.75 C-52.23162778 9.07870407 -87.81604318 22.09908338 -117.5 44.125 C-118.14654541 44.60356445 -118.79309082 45.08212891 -119.45922852 45.57519531 C-124.01561965 49.03897341 -128.04519008 52.86694942 -132 57 C-130.88141602 57.01401855 -130.88141602 57.01401855 -129.74023438 57.02832031 C-126.3261785 57.0823603 -122.91344345 57.16594304 -119.5 57.25 C-118.32695313 57.26417969 -117.15390625 57.27835937 -115.9453125 57.29296875 C-107.33821238 57.53474123 -101.59754665 58.56234431 -95.1875 64.6875 C-90.96583496 71.08030706 -89.25782125 76.92311164 -90.36328125 84.578125 C-92.15370953 91.388343 -96.3987634 95.98172157 -102 100 C-105.76300374 101.25433458 -109.27210909 101.10695422 -113.1875 101.0625 C-113.93708984 101.05798828 -114.68667969 101.05347656 -115.45898438 101.04882812 C-117.30602383 101.03706354 -119.15302213 101.01912865 -121 101 C-121 97.7 -121 94.4 -121 91 C-120.26394531 90.91363281 -119.52789062 90.82726562 -118.76953125 90.73828125 C-114.13993163 90.07166783 -110.74678494 89.49785663 -106.8125 86.875 C-104.44922303 83.12635377 -104.03129761 80.31988904 -105 76 C-106.79363911 73.1899654 -108.01880935 71.49059532 -111 70 C-114.96 69.67 -118.92 69.34 -123 69 C-123 79.56 -123 90.12 -123 101 C-128.94 101.495 -128.94 101.495 -135 102 C-135.33 88.47 -135.66 74.94 -136 61 C-140.06788509 66.42384678 -143.34529765 70.93757877 -146 77 C-146.4125 77.928125 -146.825 78.85625 -147.25 79.8125 C-148.64523582 85.74225223 -148.84488473 91.59874867 -146.8125 97.375 C-144.79600657 100.29543876 -142.60125011 102.58908527 -140 105 C-138.66666667 106.33333333 -137.33333333 107.66666667 -136 109 C-140.60662468 108.45804416 -143.44453875 106.97497778 -147 104 C-152.02842783 97.39287971 -154.57326575 91.67276402 -153.73828125 83.41015625 C-150.6851809 63.43895856 -136.73018601 47.85578318 -120.96337891 36.04321289 C-118.03269941 33.93811808 -115.03557533 31.95003149 -112 30 C-111.3611084 29.5865332 -110.7222168 29.17306641 -110.06396484 28.74707031 C-98.62961672 21.44592336 -86.6081576 15.95698718 -74 11 C-73.3488623 10.73848145 -72.69772461 10.47696289 -72.02685547 10.20751953 C-55.42823793 3.64908578 -37.06049299 1.08276923 -19.375 -0.375 C-18.35100098 -0.45967529 -17.32700195 -0.54435059 -16.27197266 -0.6315918 C-10.66773352 -1.02164237 -5.54595268 -0.90895662 0 0 Z " fill="#F8A912" transform="translate(229,208)"/>
<path d="M0 0 C4.75212171 -0.74347711 8.45811551 -0.66519676 13 1 C17.45171067 5.37627925 20.57955366 10.94988868 23.65063477 16.34179688 C25.32552558 18.40003071 26.46865431 18.44966611 29 19 C30.75 21.5625 30.75 21.5625 32 24 C31.34 24.33 30.68 24.66 30 25 C31.65 27.97 33.3 30.94 35 34 C36.258125 33.835 37.51625 33.67 38.8125 33.5 C44.06407829 32.98234443 49.2897235 32.85364134 54.5625 32.8125 C55.35309814 32.79960937 56.14369629 32.78671875 56.95825195 32.7734375 C62.54091256 32.7641899 67.60540017 33.57994501 73 35 C73.495 36.98 73.495 36.98 74 39 C64.44256112 43.75343521 54.51766113 46.76402067 43.875 47.625 C40.70507723 47.90681559 40.70507723 47.90681559 38 49 C35.72479859 52.13820884 34.74609828 55.22069846 34 59 C34.66 59 35.32 59 36 59 C35.8125 61.8125 35.8125 61.8125 35 65 C33.87271484 65.54720703 33.87271484 65.54720703 32.72265625 66.10546875 C28.0137682 69.38209817 26.65476918 74.93320497 24.5703125 80.12890625 C21.4828075 87.26324815 21.4828075 87.26324815 17.45703125 89.01953125 C16.31621094 89.34308594 15.17539062 89.66664063 14 90 C13.26910156 90.24105469 12.53820312 90.48210937 11.78515625 90.73046875 C10.19010417 91.15364583 8.59505208 91.57682292 7 92 C7.56473044 85.68370722 9.60451576 80.30505861 11.9375 74.4375 C12.65601915 72.60328386 13.37349555 70.76865884 14.08984375 68.93359375 C14.42741699 68.07233887 14.76499023 67.21108398 15.11279297 66.32373047 C15.81107418 64.49482553 16.45004512 62.64327058 17.06640625 60.78515625 C18.18947635 57.43474209 19.59516087 54.24100312 21 51 C15.41041671 51.03891724 9.82710031 51.14251207 4.23974609 51.30517578 C2.34100543 51.35145496 0.44175431 51.38030893 -1.45751953 51.39111328 C-12.21923569 50.94307939 -12.21923569 50.94307939 -21.43652344 55.26269531 C-23.02146077 57.90332603 -23.02146077 57.90332603 -23.91552734 60.67431641 C-25 63 -25 63 -27.37744141 64.31396484 C-30 65 -30 65 -34 65 C-32.45730076 60.27934033 -30.92205381 55.58335908 -29 51 C-30.32 51 -31.64 51 -33 51 C-33 50.34 -33 49.68 -33 49 C-32.01 48.34 -31.02 47.68 -30 47 C-30.5053125 46.14535156 -31.010625 45.29070312 -31.53125 44.41015625 C-32.1809375 43.30542969 -32.830625 42.20070312 -33.5 41.0625 C-34.1496875 39.96035156 -34.799375 38.85820312 -35.46875 37.72265625 C-37 35 -37 35 -37 34 C-33.51784385 33.8898923 -30.35597172 34.01801129 -27 35 C-25.19150649 37.02249159 -24.02436688 38.94632008 -22.83984375 41.3828125 C-20.94748646 43.41231854 -20.94748646 43.41231854 -17.3203125 42.93359375 C-15.54204679 42.65128934 -13.76910256 42.33496394 -12 42 C-10.79964111 41.78214844 -9.59928223 41.56429687 -8.36254883 41.33984375 C-4.2139551 40.57354605 -0.07584254 39.75704392 4.0625 38.9375 C5.51490834 38.65266001 6.96738186 38.36815212 8.41992188 38.08398438 C11.94737411 37.39314979 15.47392339 36.6978262 19 36 C18.37351562 34.87722656 17.74703125 33.75445312 17.1015625 32.59765625 C16.74916504 31.96609619 16.39676758 31.33453613 16.03369141 30.68383789 C15.04080354 28.90804118 15.04080354 28.90804118 13.375 27.4375 C12 26 12 26 11.234375 23.453125 C9.36293461 18.21782973 6.36598082 13.72969617 3.45703125 9.01367188 C3.01488281 8.28341797 2.57273437 7.55316406 2.1171875 6.80078125 C1.71097168 6.14247314 1.30475586 5.48416504 0.88623047 4.8059082 C0 3 0 3 0 0 Z " fill="#F4B61E" transform="translate(266,158)"/>
<path d="M0 0 C1.88428711 0.02707031 1.88428711 0.02707031 3.80664062 0.0546875 C6.89271916 0.10162406 9.97720781 0.16727586 13.0625 0.25 C13.0625 3.88 13.0625 7.51 13.0625 11.25 C5.8025 11.58 -1.4575 11.91 -8.9375 12.25 C-9.2675 13.57 -9.5975 14.89 -9.9375 16.25 C-7.45692372 18.73057628 -6.57557536 18.54019005 -3.1484375 18.6640625 C-1.73691406 18.72207031 -1.73691406 18.72207031 -0.296875 18.78125 C0.68796875 18.8121875 1.6728125 18.843125 2.6875 18.875 C4.17636719 18.93300781 4.17636719 18.93300781 5.6953125 18.9921875 C8.15072942 19.08662661 10.60658957 19.16940881 13.0625 19.25 C13.0625 22.88 13.0625 26.51 13.0625 30.25 C10.71511719 30.32347656 10.71511719 30.32347656 8.3203125 30.3984375 C6.27602322 30.47345729 4.23175328 30.54900545 2.1875 30.625 C0.63869141 30.67140625 0.63869141 30.67140625 -0.94140625 30.71875 C-1.92753906 30.75742187 -2.91367188 30.79609375 -3.9296875 30.8359375 C-5.29649658 30.88306885 -5.29649658 30.88306885 -6.69091797 30.93115234 C-9.13681186 31.04882511 -9.13681186 31.04882511 -10.9375 33.25 C-11.52095476 36.20746492 -11.52095476 36.20746492 -10.9375 39.25 C-6.56227037 43.02900595 -2.13920722 42.57403058 3.3125 42.375 C6.23191316 42.29769467 9.14137047 42.25591322 12.0625 42.25 C13.0625 43.25 13.0625 43.25 13.16015625 45.53515625 C13.14855469 46.45167969 13.13695312 47.36820312 13.125 48.3125 C13.11597656 49.23160156 13.10695312 50.15070313 13.09765625 51.09765625 C13.08605469 51.80792969 13.07445312 52.51820313 13.0625 53.25 C9.06275019 53.36710979 5.06344719 53.43755489 1.0625 53.5 C-0.06285156 53.53351563 -1.18820313 53.56703125 -2.34765625 53.6015625 C-9.40486948 53.68410301 -13.95614802 53.08114699 -19.9375 49.25 C-23.39866414 45.69775259 -25.8891673 42.19292435 -25.97265625 37.109375 C-25.62923621 32.05021143 -24.77147913 28.85161676 -20.9375 25.25 C-20.2775 25.25 -19.6175 25.25 -18.9375 25.25 C-19.2984375 24.7653125 -19.659375 24.280625 -20.03125 23.78125 C-23.58536932 18.64752209 -24.7558301 15.48976704 -23.9375 9.25 C-22.38980704 5.24420646 -20.04729529 3.15690817 -16.30249023 1.07910156 C-11.10140923 -0.74425666 -5.43753963 -0.14827061 0 0 Z " fill="#FBA70A" transform="translate(164.9375,265.75)"/>
<path d="M0 0 C1.27617188 -0.02900391 2.55234375 -0.05800781 3.8671875 -0.08789062 C15.49796966 -0.16680512 15.49796966 -0.16680512 20.25 4.3125 C24.80646364 8.86896364 27.03973921 14.43168652 27.38671875 20.8359375 C27.01097945 27.81395299 24.60504233 32.93223178 19.69140625 37.8828125 C14.63163341 42.29907308 10.50304963 42.44812414 4.0625 42.375 C3.31291016 42.37048828 2.56332031 42.36597656 1.79101562 42.36132812 C-0.05602383 42.34956354 -1.90302213 42.33162865 -3.75 42.3125 C-3.75 39.0125 -3.75 35.7125 -3.75 32.3125 C-3.01394531 32.22613281 -2.27789062 32.13976562 -1.51953125 32.05078125 C3.11006837 31.38416783 6.50321506 30.81035663 10.4375 28.1875 C12.80077697 24.43885377 13.21870239 21.63238904 12.25 17.3125 C10.45636089 14.5024654 9.23119065 12.80309532 6.25 11.3125 C2.29 10.9825 -1.67 10.6525 -5.75 10.3125 C-5.75 20.8725 -5.75 31.4325 -5.75 42.3125 C-14.75 43.3125 -14.75 43.3125 -16.75 42.3125 C-16.77473982 37.11637722 -16.79287892 31.92028882 -16.80493164 26.72412109 C-16.80995687 24.95686241 -16.81677809 23.18960788 -16.82543945 21.42236328 C-16.83758428 18.88052343 -16.84324645 16.3387386 -16.84765625 13.796875 C-16.85281754 13.00819031 -16.85797882 12.21950562 -16.86329651 11.40692139 C-16.86399115 4.59700642 -16.86399115 4.59700642 -15.75 1.3125 C-11.21068235 -0.95715883 -4.98330249 0.03730017 0 0 Z " fill="#FCA706" transform="translate(111.75,266.6875)"/>
<path d="M0 0 C5.15625 -0.0825 10.3125 -0.165 15.625 -0.25 C17.24100098 -0.28641602 18.85700195 -0.32283203 20.52197266 -0.36035156 C21.8063623 -0.3703418 23.09075195 -0.38033203 24.4140625 -0.390625 C25.7232666 -0.41157227 27.0324707 -0.43251953 28.38134766 -0.45410156 C33.37802094 0.17292666 36.41276472 2.30330022 39.8125 5.9375 C42.34777321 10.34086926 42.11879257 15.0837466 42.09765625 20.05078125 C42.0962413 20.70958786 42.09482635 21.36839447 42.09336853 22.04716492 C42.087805 24.13565762 42.07525947 26.22404011 42.0625 28.3125 C42.05748028 29.73502449 42.0529182 31.15755066 42.04882812 32.58007812 C42.03784757 36.05342077 42.02060835 39.52669961 42 43 C40.02145742 43.19397476 38.0421352 43.38001321 36.0625 43.5625 C34.40927734 43.71912109 34.40927734 43.71912109 32.72265625 43.87890625 C31.37494141 43.93884766 31.37494141 43.93884766 30 44 C28.18233061 42.18233061 28.82647121 39.32947932 28.7890625 36.8828125 C28.76070313 35.63628906 28.73234375 34.38976562 28.703125 33.10546875 C28.65119774 30.45977461 28.60688043 27.81391976 28.5703125 25.16796875 C28.539375 23.91886719 28.5084375 22.66976563 28.4765625 21.3828125 C28.45674316 20.23184082 28.43692383 19.08086914 28.41650391 17.89501953 C28.24400011 14.64479368 28.24400011 14.64479368 25 12 C21.04 11.67 17.08 11.34 13 11 C13 21.56 13 32.12 13 43 C8.71 43 4.42 43 0 43 C0 28.81 0 14.62 0 0 Z " fill="#FBA70B" transform="translate(269,266)"/>
<path d="M0 0 C14.19 0 28.38 0 43 0 C43 3.63 43 7.26 43 11 C38.05 11 33.1 11 28 11 C28 21.56 28 32.12 28 43 C23.71 43 19.42 43 15 43 C15 32.44 15 21.88 15 11 C10.05 11 5.1 11 0 11 C0 7.37 0 3.74 0 0 Z " fill="#FCA606" transform="translate(210,266)"/>
<path d="M0 0 C1.65322266 0.01740234 1.65322266 0.01740234 3.33984375 0.03515625 C4.99693359 0.04869141 4.99693359 0.04869141 6.6875 0.0625 C7.54214844 0.07410156 8.39679688 0.08570313 9.27734375 0.09765625 C9.40109375 1.06703125 9.52484375 2.03640625 9.65234375 3.03515625 C11.02588037 8.06128284 14.944968 10.64088926 18.8671875 13.7890625 C22.28251377 17.06046903 23.98136238 20.19910911 24.7109375 24.87890625 C24.71941629 30.78014415 24.47023411 34.57374823 20.27734375 39.09765625 C15.02403634 43.54837502 10.95875739 43.60438329 4.40234375 43.34765625 C3.52320313 43.32960938 2.6440625 43.3115625 1.73828125 43.29296875 C-0.41583945 43.24614004 -2.56939399 43.17440619 -4.72265625 43.09765625 C-4.72265625 39.79765625 -4.72265625 36.49765625 -4.72265625 33.09765625 C-3.80742187 32.96488281 -2.8921875 32.83210938 -1.94921875 32.6953125 C-0.76070312 32.51871094 0.4278125 32.34210938 1.65234375 32.16015625 C2.83570313 31.98613281 4.0190625 31.81210937 5.23828125 31.6328125 C8.18436756 31.26302839 8.18436756 31.26302839 10.27734375 30.09765625 C10.00850202 26.35537932 9.6921908 24.54372835 7.09765625 21.75390625 C5.76347656 20.6865625 5.76347656 20.6865625 4.40234375 19.59765625 C-0.05723299 16.00919217 -3.21449056 12.66086566 -4.05078125 6.796875 C-3.79210709 0.13601532 -3.79210709 0.13601532 0 0 Z " fill="#FBA70A" transform="translate(184.72265625,265.90234375)"/>
<path d="M0 0 C4.29 0 8.58 0 13 0 C13 14.19 13 28.38 13 43 C8.71 43 4.42 43 0 43 C0 28.81 0 14.62 0 0 Z " fill="#FEA503" transform="translate(312,266)"/>
<path d="M0 0 C4.29 0 8.58 0 13 0 C13 14.19 13 28.38 13 43 C8.71 43 4.42 43 0 43 C0 28.81 0 14.62 0 0 Z " fill="#FCA609" transform="translate(254,266)"/>
<path d="M0 0 C1.52519276 0.08937803 3.04681929 0.24537146 4.5625 0.4375 C5.38878906 0.53933594 6.21507812 0.64117187 7.06640625 0.74609375 C7.70449219 0.82988281 8.34257812 0.91367188 9 1 C9 1.33 9 1.66 9 2 C7.3603125 2.2165625 7.3603125 2.2165625 5.6875 2.4375 C3.71531062 2.87563765 3.71531062 2.87563765 2 4 C0.47156347 6.88294753 -0.31308379 9.82055924 -1 13 C-0.34 13 0.32 13 1 13 C0.8125 15.8125 0.8125 15.8125 0 19 C-0.75152344 19.36480469 -1.50304687 19.72960937 -2.27734375 20.10546875 C-6.9862318 23.38209817 -8.34523082 28.93320497 -10.4296875 34.12890625 C-13.5171925 41.26324815 -13.5171925 41.26324815 -17.54296875 43.01953125 C-19.25419922 43.50486328 -19.25419922 43.50486328 -21 44 C-21.73089844 44.24105469 -22.46179688 44.48210937 -23.21484375 44.73046875 C-24.80989583 45.15364583 -26.40494792 45.57682292 -28 46 C-27.44038681 39.6518879 -25.35887132 34.26393049 -23 28.375 C-22.26716433 26.53009902 -21.53787295 24.68378539 -20.8125 22.8359375 C-20.48894531 22.02688965 -20.16539062 21.2178418 -19.83203125 20.38427734 C-18.97836694 17.93800808 -18.44852248 15.5489895 -18 13 C-17.21625 13.20625 -16.4325 13.4125 -15.625 13.625 C-14.75875 13.74875 -13.8925 13.8725 -13 14 C-12.34 13.34 -11.68 12.68 -11 12 C-10.01 11.5978125 -10.01 11.5978125 -9 11.1875 C-6.32128129 9.59701076 -5.916595 7.90255082 -5 5 C-4.01 5.33 -3.02 5.66 -2 6 C-1.855625 5.195625 -1.71125 4.39125 -1.5625 3.5625 C-1 1 -1 1 0 0 Z " fill="#ECC230" transform="translate(301,204)"/>
<path d="M0 0 C-3.09769972 1.75459361 -5.74926375 2.40530571 -9.26953125 2.859375 C-10.31125488 3.00205811 -11.35297852 3.14474121 -12.42626953 3.29174805 C-13.54372559 3.44297119 -14.66118164 3.59419434 -15.8125 3.75 C-36.42131275 6.76540073 -55.37757561 12.4609767 -74.70776367 20.15551758 C-76.79311155 20.92378026 -78.83448668 21.5102297 -81 22 C-78.63379989 19.38472619 -76.057952 17.73559438 -73 16 C-73.66 15.34 -74.32 14.68 -75 14 C-76.32 14 -77.64 14 -79 14 C-64.22029777 -0.77970223 -19.35892216 -3.17283997 0 0 Z " fill="#F6B318" transform="translate(229,208)"/>
<path d="M0 0 C1.59752849 0.00031727 3.19507824 0.01165096 4.79248047 0.03173828 C6.05341019 0.03598312 6.05341019 0.03598312 7.33981323 0.04031372 C10.02990843 0.05152648 12.71967307 0.07663275 15.40966797 0.10205078 C17.23127775 0.11207918 19.05289274 0.12120527 20.87451172 0.12939453 C25.34469155 0.15146937 29.81462368 0.18600644 34.28466797 0.22705078 C34.77966797 1.21705078 34.77966797 1.21705078 35.28466797 2.22705078 C35.61466797 1.56705078 35.94466797 0.90705078 36.28466797 0.22705078 C40.18043821 0.16883143 44.07609599 0.13338048 47.97216797 0.10205078 C49.07496094 0.08529297 50.17775391 0.06853516 51.31396484 0.05126953 C52.38066406 0.04482422 53.44736328 0.03837891 54.54638672 0.03173828 C56.01531372 0.01602783 56.01531372 0.01602783 57.51391602 0 C60.45579569 0.24107394 62.61704523 0.99649536 65.28466797 2.22705078 C65.28466797 2.55705078 65.28466797 2.88705078 65.28466797 3.22705078 C63.30466797 3.22705078 61.32466797 3.22705078 59.28466797 3.22705078 C59.28466797 2.56705078 59.28466797 1.90705078 59.28466797 1.22705078 C58.44488403 1.28034546 58.44488403 1.28034546 57.58813477 1.3347168 C55.04981355 1.49239121 52.51104273 1.64106785 49.97216797 1.78955078 C48.65055664 1.87366211 48.65055664 1.87366211 47.30224609 1.95947266 C46.0309082 2.03198242 46.0309082 2.03198242 44.73388672 2.10595703 C43.56345825 2.17665405 43.56345825 2.17665405 42.36938477 2.2487793 C40.28466797 2.22705078 40.28466797 2.22705078 37.28466797 1.22705078 C37.63529297 2.17580078 37.98591797 3.12455078 38.34716797 4.10205078 C39.28466797 7.22705078 39.28466797 7.22705078 38.28466797 9.22705078 C43.56466797 9.22705078 48.84466797 9.22705078 54.28466797 9.22705078 C54.28466797 9.88705078 54.28466797 10.54705078 54.28466797 11.22705078 C49.00466797 11.22705078 43.72466797 11.22705078 38.28466797 11.22705078 C38.94466797 13.53705078 39.60466797 15.84705078 40.28466797 18.22705078 C39.62466797 18.22705078 38.96466797 18.22705078 38.28466797 18.22705078 C37.78966797 15.25705078 37.78966797 15.25705078 37.28466797 12.22705078 C36.62466797 12.22705078 35.96466797 12.22705078 35.28466797 12.22705078 C34.95466797 13.21705078 34.62466797 14.20705078 34.28466797 15.22705078 C32.62393947 15.90837529 30.95690097 16.57447205 29.28466797 17.22705078 C28.62466797 18.21705078 27.96466797 19.20705078 27.28466797 20.22705078 C25.63466797 15.60705078 23.98466797 10.98705078 22.28466797 6.22705078 C21.95466797 7.87705078 21.62466797 9.52705078 21.28466797 11.22705078 C14.68466797 11.22705078 8.08466797 11.22705078 1.28466797 11.22705078 C1.28466797 10.56705078 1.28466797 9.90705078 1.28466797 9.22705078 C7.55466797 9.22705078 13.82466797 9.22705078 20.28466797 9.22705078 C19.95466797 6.58705078 19.62466797 3.94705078 19.28466797 1.22705078 C6.90966797 1.72205078 6.90966797 1.72205078 -5.71533203 2.22705078 C-3.71533203 0.22705078 -3.71533203 0.22705078 0 0 Z " fill="#F6A91B" transform="translate(342.71533203125,265.77294921875)"/>
<path d="M0 0 C1.62580966 0.11398665 3.25067157 0.24155659 4.875 0.375 C5.77992188 0.44460937 6.68484375 0.51421875 7.6171875 0.5859375 C10 1 10 1 12 3 C13.3492671 5.92341206 14 7.75207316 14 11 C16.97 11 19.94 11 23 11 C23 11.66 23 12.32 23 13 C23.66 13.33 24.32 13.66 25 14 C24.01 15.485 24.01 15.485 23 17 C19.5625 17.125 19.5625 17.125 16 17 C15.01 17.33 14.02 17.66 13 18 C13.2475 19.2375 13.495 20.475 13.75 21.75 C14.12620192 24.87579535 14.2049596 25.66694066 12.5 28.4375 C9.34599877 30.40875077 6.67616603 30.717218 3 31 C4.54269924 26.27934033 6.07794619 21.58335908 8 17 C6.68 17 5.36 17 4 17 C4 16.34 4 15.68 4 15 C4.99 14.34 5.98 13.68 7 13 C6.4946875 12.14535156 5.989375 11.29070312 5.46875 10.41015625 C4.8190625 9.30542969 4.169375 8.20070312 3.5 7.0625 C2.8503125 5.96035156 2.200625 4.85820312 1.53125 3.72265625 C0 1 0 1 0 0 Z " fill="#F9A70B" transform="translate(229,192)"/>
<path d="M0 0 C11.52921042 -0.11816175 11.52921042 -0.11816175 14.90625 2.44921875 C16.1887435 4.25174772 17.13053699 5.96838347 18 8 C18.6496875 9.36125 18.6496875 9.36125 19.3125 10.75 C20 13 20 13 20 16 C19.071875 16.12375 19.071875 16.12375 18.125 16.25 C15.81562433 16.81258459 15.81562433 16.81258459 14.75 19.0625 C14.37875 20.0215625 14.37875 20.0215625 14 21 C13.34 21 12.68 21 12 21 C12 20.34 12 19.68 12 19 C11.01 19 10.02 19 9 19 C7.49212623 16.40011448 5.99354539 13.79559803 4.5 11.1875 C4.07074219 10.44951172 3.64148438 9.71152344 3.19921875 8.95117188 C2.79316406 8.23896484 2.38710938 7.52675781 1.96875 6.79296875 C1.40317383 5.81106567 1.40317383 5.81106567 0.82617188 4.80932617 C0 3 0 3 0 0 Z " fill="#F9A80C" transform="translate(266,158)"/>
<path d="M0 0 C4.64073925 0.28125692 7.14028602 2.45124187 10.546875 5.33203125 C12.18304197 7.21010463 12.59909978 8.56822368 13 11 C12.0925 11.144375 11.185 11.28875 10.25 11.4375 C7.81406186 11.85910468 5.39834161 12.4004146 3 13 C3 17.29 3 21.58 3 26 C3.66 26.33 4.32 26.66 5 27 C3.92892883 27.86949317 2.84254056 28.72014205 1.75 29.5625 C1.14671875 30.03816406 0.5434375 30.51382812 -0.078125 31.00390625 C-2 32 -2 32 -4.234375 31.65234375 C-4.81703125 31.43707031 -5.3996875 31.22179687 -6 31 C-5.030625 30.38125 -4.06125 29.7625 -3.0625 29.125 C0.02835362 27.34321154 0.02835362 27.34321154 1 25 C1.53365513 19.18654053 1.53365513 19.18654053 -0.875 14.0625 C-4.09164777 10.94045951 -6.2410501 10.79433313 -10.625 10.4375 C-11.62789063 10.35371094 -12.63078125 10.26992188 -13.6640625 10.18359375 C-14.82035156 10.09271484 -14.82035156 10.09271484 -16 10 C-16 9.67 -16 9.34 -16 9 C-15.18015625 8.93683594 -14.3603125 8.87367188 -13.515625 8.80859375 C-7.37151853 8.35302847 -7.37151853 8.35302847 -2.3125 5.30859375 C-1.0888417 3.19412126 -1.0888417 3.19412126 0 0 Z " fill="#F8A70E" transform="translate(123,267)"/>
<path d="M0 0 C-3.13546651 1.78123241 -5.84626584 2.42324546 -9.41015625 2.89453125 C-10.47411621 3.0430957 -11.53807617 3.19166016 -12.63427734 3.34472656 C-13.76559082 3.4990918 -14.8969043 3.65345703 -16.0625 3.8125 C-25.30274271 5.13786555 -34.2416762 6.83327513 -43.21118164 9.42504883 C-46.66266698 10.42051176 -49.36974137 11 -53 11 C-53 10.34 -53 9.68 -53 9 C-51.35 8.67 -49.7 8.34 -48 8 C-48.33 6.68 -48.66 5.36 -49 4 C-39.37680539 1.84876424 -29.82507704 0.56256238 -20 -0.25 C-18.9385376 -0.34200684 -17.8770752 -0.43401367 -16.78344727 -0.52880859 C-10.99252991 -0.9717697 -5.73103311 -0.96435653 0 0 Z " fill="#ECC036" transform="translate(229,208)"/>
<path d="M0 0 C14.19 0 28.38 0 43 0 C43 3.63 43 7.26 43 11 C38.05 11 33.1 11 28 11 C28 10.67 28 10.34 28 10 C32.62 10 37.24 10 42 10 C42 7.03 42 4.06 42 1 C28.47 1 14.94 1 1 1 C1 3.64 1 6.28 1 9 C2.60681641 8.98259766 2.60681641 8.98259766 4.24609375 8.96484375 C5.64322743 8.95546701 7.04036299 8.94636669 8.4375 8.9375 C9.14455078 8.92912109 9.85160156 8.92074219 10.58007812 8.91210938 C12.38693559 8.90346412 14.19387603 8.94779989 16 9 C17 10 17 10 17.11352539 13.14282227 C17.11336633 14.53402697 17.10767506 15.92523761 17.09765625 17.31640625 C17.0962413 18.04746078 17.09482635 18.77851532 17.09336853 19.53172302 C17.08775408 21.87535632 17.07519922 24.21889539 17.0625 26.5625 C17.05748686 28.14778508 17.05292363 29.73307166 17.04882812 31.31835938 C17.03777997 35.2122761 17.02050572 39.10612205 17 43 C16.34 43 15.68 43 15 43 C15 32.44 15 21.88 15 11 C10.05 11 5.1 11 0 11 C0 7.37 0 3.74 0 0 Z " fill="#EDAC32" transform="translate(210,266)"/>
<path d="M0 0 C4.29 0 8.58 0 13 0 C13 14.19 13 28.38 13 43 C12.34 43 11.68 43 11 43 C11 30.13 11 17.26 11 4 C8.69 4.33 6.38 4.66 4 5 C3.67 4.67 3.34 4.34 3 4 C1.38698227 7.22603545 1.87946401 10.74710038 1.90234375 14.2890625 C1.9037587 15.10748627 1.90517365 15.92591003 1.90663147 16.76913452 C1.9122371 19.38779325 1.92479052 22.00636704 1.9375 24.625 C1.94251428 26.39843627 1.94707731 28.17187387 1.95117188 29.9453125 C1.96220836 34.29690782 1.97947675 38.6484395 2 43 C1.34 43 0.68 43 0 43 C0 28.81 0 14.62 0 0 Z " fill="#F8AB17" transform="translate(312,266)"/>
<path d="M0 0 C7.33834586 -0.36090226 7.33834586 -0.36090226 10.0625 1.125 C11 3 11 3 10.5 5.875 C9.67947427 9.0572236 9.67947427 9.0572236 11.4375 11.875 C11.953125 12.57625 12.46875 13.2775 13 14 C10.625 14.1875 10.625 14.1875 8 14 C7.34 13.01 6.68 12.02 6 11 C6 11.99 6 12.98 6 14 C4.02 14 2.04 14 0 14 C0 9.38 0 4.76 0 0 Z M5 2 C5 3.32 5 4.64 5 6 C5.66 6 6.32 6 7 6 C6.67 4.68 6.34 3.36 6 2 C5.67 2 5.34 2 5 2 Z " fill="#E9C74A" transform="translate(196,346)"/>
<path d="M0 0 C3.125 0.3125 3.125 0.3125 5 1.9375 C6.7600803 5.65322509 6.5195749 8.69035874 5.5625 12.625 C4.125 14.3125 4.125 14.3125 0.6875 15.25 C-2.875 15.3125 -2.875 15.3125 -4.75 14.25 C-6.33350447 11.52285342 -6.74883553 9.46661179 -6.875 6.3125 C-4.00153061 0.43494898 -4.00153061 0.43494898 0 0 Z M-0.875 2.3125 C-3.28621859 4.26883975 -3.28621859 4.26883975 -3 7.9375 C-2.95875 9.05125 -2.9175 10.165 -2.875 11.3125 C-0.895 12.3025 -0.895 12.3025 1.125 13.3125 C2.35767348 12.30413938 2.35767348 12.30413938 2.22265625 10.24609375 C2.21105469 9.42238281 2.19945312 8.59867187 2.1875 7.75 C2.17847656 6.92371094 2.16945312 6.09742188 2.16015625 5.24609375 C2.14855469 4.60800781 2.13695312 3.96992188 2.125 3.3125 C1.135 2.9825 0.145 2.6525 -0.875 2.3125 Z " fill="#E4CA53" transform="translate(185.875,345.6875)"/>
<path d="M0 0 C4.24822374 0.47202486 6.19989709 2.96655518 9 6 C9 4.02 9 2.04 9 0 C10.32 0 11.64 0 13 0 C12.67 4.95 12.34 9.9 12 15 C8.43688534 13.21844267 6.64354525 11.83236991 4 9 C3.67 10.32 3.34 11.64 3 13 C3.66 13.33 4.32 13.66 5 14 C3.35 14 1.7 14 0 14 C0.33 13.34 0.66 12.68 1 12 C1.22622081 10.29636178 1.40888473 8.58671299 1.5625 6.875 C1.64628906 5.96492188 1.73007812 5.05484375 1.81640625 4.1171875 C1.87699219 3.41851562 1.93757813 2.71984375 2 2 C1.34 2 0.68 2 0 2 C0 1.34 0 0.68 0 0 Z " fill="#E9C646" transform="translate(332,346)"/>
<path d="M0 0 C1.98 0 3.96 0 6 0 C6 0.66 6 1.32 6 2 C6.66 2.33 7.32 2.66 8 3 C7.01 4.485 7.01 4.485 6 6 C2.5625 6.125 2.5625 6.125 -1 6 C-1.99 6.33 -2.98 6.66 -4 7 C-3.814375 8.27875 -3.62875 9.5575 -3.4375 10.875 C-2.875 14.75 -2.875 14.75 -4 17 C-7.39914975 15.86695008 -8.05254451 14.87481525 -10 12 C-9.26674793 10.51245994 -8.51273922 9.03513808 -7.75 7.5625 C-7.33234375 6.73878906 -6.9146875 5.91507813 -6.484375 5.06640625 C-4.73038182 2.62466312 -3.86234565 2.51451254 -1 2 C-0.67 1.34 -0.34 0.68 0 0 Z " fill="#FCA605" transform="translate(246,203)"/>
<path d="M0 0 C7 0 7 0 10 2 C10.1875 4.4375 10.1875 4.4375 10 7 C10 10.10551666 10.5393715 11.35261084 12 14 C10.35 14 8.7 14 7 14 C6.34 12.35 5.68 10.7 5 9 C4.67 10.32 4.34 11.64 4 13 C4.66 13.33 5.32 13.66 6 14 C4.02 14 2.04 14 0 14 C0 9.38 0 4.76 0 0 Z M4 2 C4 3.65 4 5.3 4 7 C4.99 6.34 5.98 5.68 7 5 C6.67 4.01 6.34 3.02 6 2 C5.34 2 4.68 2 4 2 Z " fill="#E7C843" transform="translate(271,346)"/>
<path d="M0 0 C3.33125894 0.4858086 4.01648734 0.83341467 6 3.4375 C6.3984375 5.59375 6.3984375 5.59375 6.375 7.9375 C6.38273437 8.7109375 6.39046875 9.484375 6.3984375 10.28125 C5.90440524 12.95483636 5.20188602 13.86833985 3 15.4375 C-0.5625 15.3125 -0.5625 15.3125 -4 14.4375 C-6.47342266 10.72736601 -6.38503486 8.82689738 -6 4.4375 C-4.4369108 1.05080673 -3.7186535 0.54230363 0 0 Z M-1 2.4375 C-3.56687367 6.2878105 -2.83288724 8.02319763 -2 12.4375 C-0.02 12.9325 -0.02 12.9325 2 13.4375 C3.49297212 10.45155576 3.11755228 7.72896376 3 4.4375 C2.67 3.7775 2.34 3.1175 2 2.4375 C1.01 2.4375 0.02 2.4375 -1 2.4375 Z " fill="#E6C74B" transform="translate(366,345.5625)"/>
<path d="M0 0 C3.3 0 6.6 0 10 0 C10 1.65 10 3.3 10 5 C9.34 5 8.68 5 8 5 C8 6.65 8 8.3 8 10 C7.01 10.495 7.01 10.495 6 11 C5.67 10.34 5.34 9.68 5 9 C4.67 9.99 4.34 10.98 4 12 C5.98 11.34 7.96 10.68 10 10 C10 11.32 10 12.64 10 14 C5.97128525 15.03595522 4.34944269 14.86988854 0 14 C0 9.38 0 4.76 0 0 Z M4 2 C4 3.32 4 4.64 4 6 C4.66 6 5.32 6 6 6 C6 4.68 6 3.36 6 2 C5.34 2 4.68 2 4 2 Z " fill="#EDD04B" transform="translate(318,346)"/>
<path d="M0 0 C3.3 0 6.6 0 10 0 C10.33 1.65 10.66 3.3 11 5 C10.34 5 9.68 5 9 5 C9 6.65 9 8.3 9 10 C8.01 10.495 8.01 10.495 7 11 C6.67 10.34 6.34 9.68 6 9 C6 9.99 6 10.98 6 12 C7.65 11.34 9.3 10.68 11 10 C11 11.32 11 12.64 11 14 C7.37 14 3.74 14 0 14 C0.33 13.34 0.66 12.68 1 12 C1.22622081 10.29636178 1.40888473 8.58671299 1.5625 6.875 C1.64628906 5.96492188 1.73007813 5.05484375 1.81640625 4.1171875 C1.87699219 3.41851562 1.93757812 2.71984375 2 2 C1.34 2 0.68 2 0 2 C0 1.34 0 0.68 0 0 Z M6 2 C5.67 3.32 5.34 4.64 5 6 C5.66 6 6.32 6 7 6 C7 5.34 7 4.68 7 4 C7.66 3.67 8.32 3.34 9 3 C8.01 2.67 7.02 2.34 6 2 Z " fill="#EECE4F" transform="translate(211,346)"/>
<path d="M0 0 C5.14860706 1.28715177 5.86461447 2.90658001 9 7 C9.33 5.35 9.66 3.7 10 2 C9.34 2 8.68 2 8 2 C8 1.34 8 0.68 8 0 C9.65 0 11.3 0 13 0 C13 0.66 13 1.32 13 2 C12.34 2 11.68 2 11 2 C11 6.29 11 10.58 11 15 C6 11 6 11 4 9 C4 10.65 4 12.3 4 14 C2.68 13.67 1.36 13.34 0 13 C0 8.71 0 4.42 0 0 Z " fill="#E8C649" transform="translate(286,346)"/>
<path d="M0 0 C1.98 0 3.96 0 6 0 C6 1.32 6 2.64 6 4 C6.66 4 7.32 4 8 4 C8 2.68 8 1.36 8 0 C9.32 0 10.64 0 12 0 C11.690625 0.598125 11.38125 1.19625 11.0625 1.8125 C9.89790296 4.08956772 9.89790296 4.08956772 9 7 C10.41488448 9.76239351 11.80363095 11.80363095 14 14 C11.69 14 9.38 14 7 14 C7 13.34 7 12.68 7 12 C6.34 11.67 5.68 11.34 5 11 C5 11.99 5 12.98 5 14 C3.68 13.67 2.36 13.34 1 13 C1.804375 12.1646875 1.804375 12.1646875 2.625 11.3125 C3.07875 10.549375 3.5325 9.78625 4 9 C3.38858872 6.42885788 3.38858872 6.42885788 2 4 C1.62875 3.236875 1.2575 2.47375 0.875 1.6875 C0.58625 1.130625 0.2975 0.57375 0 0 Z " fill="#E9CB57" transform="translate(134,346)"/>
<path d="M0 0 C0.66 0.33 1.32 0.66 2 1 C1.05066101 4.35433109 0.10251165 7.69246505 -1 11 C0.32 10.34 1.64 9.68 3 9 C3 14.28 3 19.56 3 25 C3.66 25.33 4.32 25.66 5 26 C3.92892883 26.86949317 2.84254056 27.72014205 1.75 28.5625 C1.14671875 29.03816406 0.5434375 29.51382812 -0.078125 30.00390625 C-2 31 -2 31 -4.234375 30.65234375 C-4.81703125 30.43707031 -5.3996875 30.22179687 -6 30 C-5.030625 29.38125 -4.06125 28.7625 -3.0625 28.125 C0.02835362 26.34321154 0.02835362 26.34321154 1 24 C1.53365513 18.18654053 1.53365513 18.18654053 -0.875 13.0625 C-4.09164777 9.94045951 -6.2410501 9.79433313 -10.625 9.4375 C-11.62789063 9.35371094 -12.63078125 9.26992188 -13.6640625 9.18359375 C-14.82035156 9.09271484 -14.82035156 9.09271484 -16 9 C-16 8.67 -16 8.34 -16 8 C-15.18015625 7.92523438 -14.3603125 7.85046875 -13.515625 7.7734375 C-7.47997675 7.27380243 -7.47997675 7.27380243 -2.3125 4.53125 C-1.09864117 2.73597902 -1.09864117 2.73597902 0 0 Z " fill="#F5A91C" transform="translate(123,268)"/>
<path d="M0 0 C1.13480527 3.60993172 1.10015767 6.9842327 1.0625 10.75 C1.05347656 11.92046875 1.04445313 13.0909375 1.03515625 14.296875 C1.02355469 15.18890625 1.01195313 16.0809375 1 17 C1.04898438 16.30132812 1.09796875 15.60265625 1.1484375 14.8828125 C1.22320312 13.97273438 1.29796875 13.06265625 1.375 12.125 C1.47941406 10.76761719 1.47941406 10.76761719 1.5859375 9.3828125 C2 7 2 7 4 5 C3.96519531 5.94101562 3.93039063 6.88203125 3.89453125 7.8515625 C3.85392578 9.71941406 3.85392578 9.71941406 3.8125 11.625 C3.76029297 13.46964844 3.76029297 13.46964844 3.70703125 15.3515625 C4.23776964 21.96102458 7.26673839 25.61307461 12 30 C13.33333333 31.33333333 14.66666667 32.66666667 16 34 C11.39337532 33.45804416 8.55546125 31.97497778 5 29 C0.83638429 23.52920261 -2.39322681 18.01465887 -2 11 C-1.49299594 7.29345575 -0.81211704 3.65117082 0 0 Z " fill="#F2AA23" transform="translate(77,283)"/>
<path d="M0 0 C3.3 0 6.6 0 10 0 C10 1.65 10 3.3 10 5 C8.35 4.01 6.7 3.02 5 2 C5.33 2.99 5.66 3.98 6 5 C6.66 4.67 7.32 4.34 8 4 C8 5.98 8 7.96 8 10 C7.34 9.67 6.68 9.34 6 9 C6 9.99 6 10.98 6 12 C6.66 12 7.32 12 8 12 C8.33 11.34 8.66 10.68 9 10 C9.66 10 10.32 10 11 10 C11 11.32 11 12.64 11 14 C7.37 14 3.74 14 0 14 C0.33 13.34 0.66 12.68 1 12 C1.22622081 10.29636178 1.40888473 8.58671299 1.5625 6.875 C1.64628906 5.96492188 1.73007813 5.05484375 1.81640625 4.1171875 C1.87699219 3.41851562 1.93757812 2.71984375 2 2 C1.34 2 0.68 2 0 2 C0 1.34 0 0.68 0 0 Z " fill="#E7C949" transform="translate(241,346)"/>
<path d="M0 0 C3.3 0 6.6 0 10 0 C10.33 1.32 10.66 2.64 11 4 C10.01 4.495 10.01 4.495 9 5 C8.67 4.34 8.34 3.68 8 3 C7.34 3 6.68 3 6 3 C5.67 3.99 5.34 4.98 5 6 C5.66 6 6.32 6 7 6 C7.33 5.34 7.66 4.68 8 4 C8 5.98 8 7.96 8 10 C7.34 9.67 6.68 9.34 6 9 C6 9.99 6 10.98 6 12 C6.66 12 7.32 12 8 12 C8.33 11.34 8.66 10.68 9 10 C9.66 10 10.32 10 11 10 C11 11.32 11 12.64 11 14 C7.37 14 3.74 14 0 14 C0.66 13.67 1.32 13.34 2 13 C2 9.37 2 5.74 2 2 C1.34 2 0.68 2 0 2 C0 1.34 0 0.68 0 0 Z " fill="#E7C949" transform="translate(120,346)"/>
<path d="M0 0 C7 0 7 0 10 1 C10.6875 3.3125 10.6875 3.3125 11 6 C9.8125 7.8125 9.8125 7.8125 8 9 C6.68 9 5.36 9 4 9 C4.66 10.65 5.32 12.3 6 14 C4.02 14 2.04 14 0 14 C0 9.38 0 4.76 0 0 Z M4 2 C4 3.65 4 5.3 4 7 C4.99 7 5.98 7 7 7 C6.67 5.35 6.34 3.7 6 2 C5.34 2 4.68 2 4 2 Z " fill="#E2C95B" transform="translate(151,346)"/>
<path d="M0 0 C2.31 0 4.62 0 7 0 C6.93981983 2.25073828 6.85098794 4.50072325 6.75 6.75 C6.68039062 8.62945312 6.68039062 8.62945312 6.609375 10.546875 C5.92849653 14.40518636 5.01873478 15.60916205 2 18 C0.68 17.34 -0.64 16.68 -2 16 C-1.67 15.01 -1.34 14.02 -1 13 C-0.01 13 0.98 13 2 13 C2 9.37 2 5.74 2 2 C1.34 2 0.68 2 0 2 C0 1.34 0 0.68 0 0 Z " fill="#E6C756" transform="translate(349,346)"/>
<path d="M0 0 C0.33 0.66 0.66 1.32 1 2 C3.02463255 2.65213292 3.02463255 2.65213292 5 3 C4.34 3 3.68 3 3 3 C2.34 5.97 1.68 8.94 1 12 C8.92 12 16.84 12 25 12 C25 15.63 25 19.26 25 23 C17.08 23 9.16 23 1 23 C1 22.67 1 22.34 1 22 C8.59 22 16.18 22 24 22 C24 19.03 24 16.06 24 13 C16.08 13 8.16 13 0 13 C-0.87890625 3.72265625 -0.87890625 3.72265625 -1 1 C-0.67 0.67 -0.34 0.34 0 0 Z " fill="#F4AF2F" transform="translate(339,275)"/>
<path d="M0 0 C2.31 0 4.62 0 7 0 C7 1.32 7 2.64 7 4 C7.66 4.33 8.32 4.66 9 5 C-1.37357631 9.59225513 -1.37357631 9.59225513 -7 9 C-4.53846154 4.2 -4.53846154 4.2 -1.8125 3.1875 C-0.9153125 3.0946875 -0.9153125 3.0946875 0 3 C0 2.01 0 1.02 0 0 Z " fill="#F4B21E" transform="translate(329,193)"/>
<path d="M0 0 C1.98 0 3.96 0 6 0 C6.33 1.32 6.66 2.64 7 4 C7.33 2.68 7.66 1.36 8 0 C9.32 0 10.64 0 12 0 C11.690625 0.495 11.38125 0.99 11.0625 1.5 C9.37443585 5.47191566 9 9.68411965 9 14 C7.125 14.625 7.125 14.625 5 15 C4.34 14.34 3.68 13.68 3 13 C3.20625 12.2575 3.4125 11.515 3.625 10.75 C4.16534397 6.78747754 2.29315937 5.1270355 0 2 C0 1.34 0 0.68 0 0 Z " fill="#E9CC4F" transform="translate(376,346)"/>
<path d="M0 0 C0.66 0 1.32 0 2 0 C2.34933594 0.84304688 2.69867188 1.68609375 3.05859375 2.5546875 C3.51363281 3.65039062 3.96867187 4.74609375 4.4375 5.875 C5.11619141 7.51082031 5.11619141 7.51082031 5.80859375 9.1796875 C6.49543463 10.80558624 7.21065887 12.42131774 8 14 C6.02 14 4.04 14 2 14 C2 13.01 2 12.02 2 11 C0.68 11 -0.64 11 -2 11 C-1.67 11.99 -1.34 12.98 -1 14 C-2.32 13.67 -3.64 13.34 -5 13 C-4.72285156 12.31292969 -4.44570312 11.62585938 -4.16015625 10.91796875 C-3.79792969 10.01691406 -3.43570312 9.11585938 -3.0625 8.1875 C-2.70285156 7.29417969 -2.34320313 6.40085937 -1.97265625 5.48046875 C-1.26386514 3.6729091 -0.6139753 1.84192591 0 0 Z M0 7 C1 9 1 9 1 9 Z " fill="#EBCF5D" transform="translate(260,346)"/>
<path d="M0 0 C3.34869349 2.91660401 4.41085856 4.63272691 5 9 C5.08028946 11.34911415 5.10765823 13.70031669 5.09765625 16.05078125 C5.0962413 16.70958786 5.09482635 17.36839447 5.09336853 18.04716492 C5.087805 20.13565762 5.07525947 22.22404011 5.0625 24.3125 C5.05748028 25.73502449 5.0529182 27.15755066 5.04882812 28.58007812 C5.03784757 32.05342077 5.02060835 35.52669961 5 39 C4.34 39 3.68 39 3 39 C3 28.11 3 17.22 3 6 C2.34 6 1.68 6 1 6 C0.67 4.02 0.34 2.04 0 0 Z " fill="#EBAB34" transform="translate(306,270)"/>
<path d="M0 0 C0 0.99 0 1.98 0 3 C-1.98 3 -3.96 3 -6 3 C-6 3.99 -6 4.98 -6 6 C-11.445 7.485 -11.445 7.485 -17 9 C-15.74874616 5.24623848 -14.4347596 4.75926711 -11 3 C-10.34 3 -9.68 3 -9 3 C-9 2.34 -9 1.68 -9 1 C-9.66 0.67 -10.32 0.34 -11 0 C-3.375 -2.25 -3.375 -2.25 0 0 Z " fill="#F1B92A" transform="translate(182,214)"/>
<path d="M0 0 C1.98 0 3.96 0 6 0 C6 3.96 6 7.92 6 12 C6.66 12 7.32 12 8 12 C8.33 11.34 8.66 10.68 9 10 C9.66 10 10.32 10 11 10 C11 11.32 11 12.64 11 14 C7.37 14 3.74 14 0 14 C0.33 13.34 0.66 12.68 1 12 C1.22622081 10.29636178 1.40888473 8.58671299 1.5625 6.875 C1.64628906 5.96492188 1.73007813 5.05484375 1.81640625 4.1171875 C1.87699219 3.41851562 1.93757812 2.71984375 2 2 C1.34 2 0.68 2 0 2 C0 1.34 0 0.68 0 0 Z " fill="#EAC840" transform="translate(165,346)"/>
<path d="M0 0 C0.33 0 0.66 0 1 0 C1 3.3 1 6.6 1 10 C-2.99974981 10.11710979 -6.99905281 10.18755489 -11 10.25 C-12.12535156 10.28351563 -13.25070313 10.31703125 -14.41015625 10.3515625 C-21.43889239 10.43376994 -26.05562878 9.85812555 -32 6 C-32.33 5.34 -32.66 4.68 -33 4 C-29.7 4.33 -26.4 4.66 -23 5 C-22.67 5.99 -22.34 6.98 -22 8 C-15.07 8 -8.14 8 -1 8 C-0.67 5.36 -0.34 2.72 0 0 Z " fill="#F6AB1F" transform="translate(177,309)"/>
<path d="M0 0 C1.32 0.33 2.64 0.66 4 1 C3.01 1.33 2.02 1.66 1 2 C0.88679144 7.08303686 0.88679144 7.08303686 2 12 C3.99665314 13.68538601 3.99665314 13.68538601 6 15 C2.625 14.6875 2.625 14.6875 -1 14 C-3.47342266 10.28986601 -3.38503486 8.38939738 -3 4 C-1.5 1.5625 -1.5 1.5625 0 0 Z " fill="#E3C85F" transform="translate(363,346)"/>
<path d="M0 0 C0.66 0.33 1.32 0.66 2 1 C0.55277938 4.16979738 -0.9536356 7.17229647 -3 10 C-6.1875 11.1875 -6.1875 11.1875 -9 11 C-9.66 10.34 -10.32 9.68 -11 9 C-11 8.01 -11 7.02 -11 6 C-8.03 6 -5.06 6 -2 6 C-2 4.68 -2 3.36 -2 2 C-1.34 2 -0.68 2 0 2 C0 1.34 0 0.68 0 0 Z " fill="#EAC33F" transform="translate(289,236)"/>
<path d="M0 0 C-0.66 1.32 -1.32 2.64 -2 4 C-3.65 4 -5.3 4 -7 4 C-7.33 4.99 -7.66 5.98 -8 7 C-10.31 7.33 -12.62 7.66 -15 8 C-15 7.34 -15 6.68 -15 6 C-13.35 5.67 -11.7 5.34 -10 5 C-10.33 3.68 -10.66 2.36 -11 1 C-9.5437328 0.63743142 -8.08488815 0.28520207 -6.625 -0.0625 C-5.81289062 -0.25972656 -5.00078125 -0.45695313 -4.1640625 -0.66015625 C-2 -1 -2 -1 0 0 Z " fill="#EBC031" transform="translate(191,211)"/>
<path d="M0 0 C0.99 0.66 1.98 1.32 3 2 C2.690625 2.886875 2.38125 3.77375 2.0625 4.6875 C0.42489586 10.30877947 0.33225589 16.18552198 0 22 C-2.35779354 18.46330969 -2.26931688 16.87443306 -2.25 12.6875 C-2.25515625 11.57761719 -2.2603125 10.46773438 -2.265625 9.32421875 C-1.99363456 5.9203384 -1.21230021 3.17988268 0 0 Z " fill="#FCA506" transform="translate(79,281)"/>
<path d="M0 0 C0.103125 0.598125 0.20625 1.19625 0.3125 1.8125 C1.09911856 4.31537724 2.13545831 5.21314755 4 7 C4.33 7.99 4.66 8.98 5 10 C1.62902617 11.49821059 -0.20442119 12 -4 12 C-2.66666667 8 -1.33333333 4 0 0 Z " fill="#F6A718" transform="translate(236,211)"/>
<path d="M0 0 C0.66 0.99 1.32 1.98 2 3 C1.01 3 0.02 3 -1 3 C-1 3.66 -1 4.32 -1 5 C-1.99 5.33 -2.98 5.66 -4 6 C-4.33 7.65 -4.66 9.3 -5 11 C-4.01 11.33 -3.02 11.66 -2 12 C-3.98 12.99 -3.98 12.99 -6 14 C-6.33 12.68 -6.66 11.36 -7 10 C-8.65 10.33 -10.3 10.66 -12 11 C-8.68542782 6.30435607 -4.63720719 3.27530896 0 0 Z " fill="#F2AC1E" transform="translate(111,242)"/>
<path d="M0 0 C3.3 0 6.6 0 10 0 C10 1.65 10 3.3 10 5 C8.35 4.01 6.7 3.02 5 2 C5.33 2.99 5.66 3.98 6 5 C6.66 4.67 7.32 4.34 8 4 C8 5.98 8 7.96 8 10 C7.34 9.67 6.68 9.34 6 9 C5.01 10.485 5.01 10.485 4 12 C4 8.37 4 4.74 4 1 C2.68 1.33 1.36 1.66 0 2 C0 1.34 0 0.68 0 0 Z " fill="#E9CD68" transform="translate(241,346)"/>
<path d="M0 0 C3.3 0 6.6 0 10 0 C10.33 1.65 10.66 3.3 11 5 C10.34 5 9.68 5 9 5 C9 6.65 9 8.3 9 10 C8.01 10.495 8.01 10.495 7 11 C6.06934867 8.39417629 5.85082593 7.35801776 6.9375 4.75 C7.4634375 3.88375 7.4634375 3.88375 8 3 C5.36 2.67 2.72 2.34 0 2 C0 1.34 0 0.68 0 0 Z " fill="#E9CB66" transform="translate(211,346)"/>
<path d="M0 0 C2.97 0 5.94 0 9 0 C10.64350079 3.28700157 11.41321669 5.47930015 12 9 C11.01 9.495 11.01 9.495 10 10 C9.01 9.34 8.02 8.68 7 8 C7.66 6.02 8.32 4.04 9 2 C6.03 2 3.06 2 0 2 C0 1.34 0 0.68 0 0 Z " fill="#EBBC3A" transform="translate(278,207)"/>
<path d="M0 0 C2.31 0 4.62 0 7 0 C7 1.65 7 3.3 7 5 C4.36 5.33 1.72 5.66 -1 6 C-0.67 4.02 -0.34 2.04 0 0 Z " fill="#F8AD0B" transform="translate(329,193)"/>
<path d="M0 0 C2.1640625 0.0234375 2.1640625 0.0234375 4.625 0.375 C5.85089844 0.54128906 5.85089844 0.54128906 7.1015625 0.7109375 C7.72804688 0.80632812 8.35453125 0.90171875 9 1 C9 1.33 9 1.66 9 2 C7.3603125 2.2475 7.3603125 2.2475 5.6875 2.5 C1.99455496 3.56869679 1.99455496 3.56869679 0.8671875 5.9140625 C0.13382276 7.92903553 -0.49149172 9.9175375 -1 12 C-1.33 12 -1.66 12 -2 12 C-2.05395478 10.37536158 -2.09277195 8.75021459 -2.125 7.125 C-2.14820313 6.22007812 -2.17140625 5.31515625 -2.1953125 4.3828125 C-2 2 -2 2 0 0 Z " fill="#E8C645" transform="translate(301,204)"/>
<path d="M0 0 C-3.53425882 2.12055529 -6.92720311 2.61577388 -11 3 C-11.33 2.67 -11.66 2.34 -12 2 C-13.68183948 1.76712992 -15.3712416 1.58735834 -17.0625 1.4375 C-18.44115234 1.31181641 -18.44115234 1.31181641 -19.84765625 1.18359375 C-20.91306641 1.09271484 -20.91306641 1.09271484 -22 1 C-22 0.67 -22 0.34 -22 0 C-7.40318907 -1.33257403 -7.40318907 -1.33257403 0 0 Z " fill="#F1CD50" transform="translate(229,208)"/>
<path d="M0 0 C1.32 0.66 2.64 1.32 4 2 C4.99 1.34 5.98 0.68 7 0 C6.34 1.98 5.68 3.96 5 6 C3.35 5.67 1.7 5.34 0 5 C-0.33 5.99 -0.66 6.98 -1 8 C-1.99 7.67 -2.98 7.34 -4 7 C-2.625 5 -2.625 5 -1 3 C-0.34 3 0.32 3 1 3 C0.67 2.01 0.34 1.02 0 0 Z " fill="#F6A817" transform="translate(145,288)"/>
<path d="M0 0 C2.31 0 4.62 0 7 0 C7 0.33 7 0.66 7 1 C5.35 1 3.7 1 2 1 C2.33 3.31 2.66 5.62 3 8 C3.33 8 3.66 8 4 8 C4 9.65 4 11.3 4 13 C4.66 13.33 5.32 13.66 6 14 C4.02 14 2.04 14 0 14 C0 9.38 0 4.76 0 0 Z " fill="#E4C85F" transform="translate(271,346)"/>
<path d="M0 0 C1.32 0 2.64 0 4 0 C3.67 4.95 3.34 9.9 3 15 C2.01 14.67 1.02 14.34 0 14 C0.66 13.67 1.32 13.34 2 13 C1.67 11.96875 1.34 10.9375 1 9.875 C0.0284808 6.51573291 -0.17116771 3.50893798 0 0 Z " fill="#EBD66B" transform="translate(341,346)"/>
<path d="M0 0 C1.65 0 3.3 0 5 0 C5 0.66 5 1.32 5 2 C4.34 2 3.68 2 3 2 C3 6.29 3 10.58 3 15 C1.35 13.35 -0.3 11.7 -2 10 C-1.01 10.33 -0.02 10.66 1 11 C1.33 10.34 1.66 9.68 2 9 C1.34 9 0.68 9 0 9 C0.66 6.69 1.32 4.38 2 2 C1.34 2 0.68 2 0 2 C0 1.34 0 0.68 0 0 Z " fill="#E1CC6E" transform="translate(294,346)"/>
<path d="M0 0 C0 0.66 0 1.32 0 2 C-4.38461538 5 -4.38461538 5 -7 5 C-7.66 6.32 -8.32 7.64 -9 9 C-9.33 7.68 -9.66 6.36 -10 5 C-9.34 5 -8.68 5 -8 5 C-7.731875 4.195625 -7.46375 3.39125 -7.1875 2.5625 C-6.5996875 1.2940625 -6.5996875 1.2940625 -6 0 C-3 -1 -3 -1 0 0 Z " fill="#F6B918" transform="translate(173,215)"/>
<path d="M0 0 C0.99 0.33 1.98 0.66 3 1 C3.33 5.29 3.66 9.58 4 14 C2.68 13.67 1.36 13.34 0 13 C0 8.71 0 4.42 0 0 Z " fill="#EED978" transform="translate(286,346)"/>
<path d="M0 0 C0.99 0.33 1.98 0.66 3 1 C3 2.65 3 4.3 3 6 C1.125 6.625 1.125 6.625 -1 7 C-1.66 6.34 -2.32 5.68 -3 5 C-3 4.01 -3 3.02 -3 2 C-2.01 1.34 -1.02 0.68 0 0 Z " fill="#FCA505" transform="translate(102,251)"/>
<path d="M0 0 C1.98 0 3.96 0 6 0 C6 3.3 6 6.6 6 10 C3.51275097 6.68366796 1.76890085 3.70626844 0 0 Z " fill="#F6AC1C" transform="translate(229,192)"/>
<path d="M0 0 C-2.45925493 2.45925493 -4.79646927 3.34371127 -8 4.6875 C-9.0725 5.14511719 -10.145 5.60273438 -11.25 6.07421875 C-12.1575 6.37972656 -13.065 6.68523437 -14 7 C-14.66 6.67 -15.32 6.34 -16 6 C-10.59422159 1.88131168 -6.91995707 -0.88339877 0 0 Z " fill="#EFAE31" transform="translate(164,223)"/>
<path d="M0 0 C0 0.66 0 1.32 0 2 C-1.175625 2.1546875 -1.175625 2.1546875 -2.375 2.3125 C-5.33045181 2.77595022 -5.33045181 2.77595022 -7 6 C-7.99 5.67 -8.98 5.34 -10 5 C-10 3.68 -10 2.36 -10 1 C-6.52674819 -0.1577506 -3.63932552 -0.06866652 0 0 Z " fill="#ECC335" transform="translate(311,192)"/>
<path d="M0 0 C0.66 0 1.32 0 2 0 C2 1.98 2 3.96 2 6 C2.66 6.33 3.32 6.66 4 7 C3.67 8.65 3.34 10.3 3 12 C2.01 12 1.02 12 0 12 C0 8.04 0 4.08 0 0 Z " fill="#EBCA2E" transform="translate(153,347)"/>
<path d="M0 0 C1.9375 0.375 1.9375 0.375 4 1 C4.33 1.66 4.66 2.32 5 3 C4.34 3 3.68 3 3 3 C3.185625 4.093125 3.37125 5.18625 3.5625 6.3125 C4 10 4 10 3 13 C3.66 13.33 4.32 13.66 5 14 C3.35 14 1.7 14 0 14 C0.33 13.34 0.66 12.68 1 12 C1.22622081 10.29636178 1.40888473 8.58671299 1.5625 6.875 C1.64628906 5.96492188 1.73007812 5.05484375 1.81640625 4.1171875 C1.87699219 3.41851562 1.93757813 2.71984375 2 2 C1.34 2 0.68 2 0 2 C0 1.34 0 0.68 0 0 Z " fill="#E6CE5F" transform="translate(332,346)"/>
<path d="M0 0 C0.66 0.66 1.32 1.32 2 2 C1.625 4.625 1.625 4.625 1 7 C-0.65 7.33 -2.3 7.66 -4 8 C-3.40138258 5.64828869 -2.73075648 3.3140622 -2 1 C-1.34 0.67 -0.68 0.34 0 0 Z " fill="#E6C846" transform="translate(160,347)"/>
<path d="M0 0 C2.97 0.495 2.97 0.495 6 1 C3.66666667 3.33333333 1.33333333 5.66666667 -1 8 C-1.33 6.02 -1.66 4.04 -2 2 C-1.34 2 -0.68 2 0 2 C0 1.34 0 0.68 0 0 Z " fill="#F6A91B" transform="translate(244,208)"/>
<path d="M0 0 C3.3 0 6.6 0 10 0 C10.33 1.32 10.66 2.64 11 4 C10.01 4.495 10.01 4.495 9 5 C8.67 4.34 8.34 3.68 8 3 C6.10466658 2.53476937 6.10466658 2.53476937 3.9375 2.375 C2.638125 2.25125 1.33875 2.1275 0 2 C0 1.34 0 0.68 0 0 Z " fill="#E9CA69" transform="translate(120,346)"/>
<path d="M0 0 C1.5635348 3.12706959 1.39958487 6.57982443 1 10 C0.34 10.99 -0.32 11.98 -1 13 C-2.5635348 9.87293041 -2.39958487 6.42017557 -2 3 C-1.34 2.01 -0.68 1.02 0 0 Z " fill="#F3AA26" transform="translate(143,272)"/>
<path d="M0 0 C0.99 0 1.98 0 3 0 C3.1875 2.8125 3.1875 2.8125 3 6 C2.01 6.99 1.02 7.98 0 9 C0 6.03 0 3.06 0 0 Z " fill="#EBC43C" transform="translate(189,350)"/>
<path d="M0 0 C2.475 0.99 2.475 0.99 5 2 C4.45276317 5.37462715 3.9451 7.08235 2 10 C2 8.35 2 6.7 2 5 C1.01 5 0.02 5 -1 5 C-0.67 3.35 -0.34 1.7 0 0 Z " fill="#F3AA25" transform="translate(79,278)"/>
<path d="M0 0 C1.9078584 3.1749094 2.1609041 5.10585211 1.625 8.75 C1.51414062 9.54921875 1.40328125 10.3484375 1.2890625 11.171875 C1.19367188 11.77515625 1.09828125 12.3784375 1 13 C0.67 13 0.34 13 0 13 C-0.12375 11.88625 -0.2475 10.7725 -0.375 9.625 C-0.6465813 5.96896323 -0.6465813 5.96896323 -3 4 C-2.34 3.67 -1.68 3.34 -1 3 C-0.67 2.01 -0.34 1.02 0 0 Z " fill="#F2AE25" transform="translate(413,275)"/>
<path d="M0 0 C0.66 0.99 1.32 1.98 2 3 C1 5 1 5 -0.9375 5.75 C-1.618125 5.8325 -2.29875 5.915 -3 6 C-3.66 5.34 -4.32 4.68 -5 4 C-4.67 3.01 -4.34 2.02 -4 1 C-1.9375 0.3125 -1.9375 0.3125 0 0 Z " fill="#FCA403" transform="translate(136,230)"/>
<path d="M0 0 C4.875 4.75 4.875 4.75 6 7 C4.02 7 2.04 7 0 7 C0 4.69 0 2.38 0 0 Z " fill="#E9CD47" transform="translate(262,353)"/>
<path d="M0 0 C3.875 4.75 3.875 4.75 5 7 C3.35 7 1.7 7 0 7 C-0.66 5.68 -1.32 4.36 -2 3 C-1.34 3 -0.68 3 0 3 C0 2.01 0 1.02 0 0 Z " fill="#E8C24F" transform="translate(204,353)"/>
<path d="M0 0 C2.97 1.98 5.94 3.96 9 6 C6 7 6 7 3.95703125 6.00390625 C3.24933594 5.52824219 2.54164062 5.05257813 1.8125 4.5625 C1.09707031 4.08941406 0.38164063 3.61632812 -0.35546875 3.12890625 C-0.89816406 2.75636719 -1.44085938 2.38382812 -2 2 C-1.34 1.34 -0.68 0.68 0 0 Z " fill="#EBB33F" transform="translate(84,310)"/>
<path d="M0 0 C1.65 0 3.3 0 5 0 C4.67 1.65 4.34 3.3 4 5 C3.01 5 2.02 5 1 5 C0.67 3.35 0.34 1.7 0 0 Z " fill="#EFAA1C" transform="translate(266,158)"/>
<path d="M0 0 C0.33 0.99 0.66 1.98 1 3 C-0.75 6.1875 -0.75 6.1875 -3 9 C-3.99 9 -4.98 9 -6 9 C-5.67 7.35 -5.34 5.7 -5 4 C-4.01 4 -3.02 4 -2 4 C-1.34 2.68 -0.68 1.36 0 0 Z " fill="#EFAF33" transform="translate(208,296)"/>
<path d="M0 0 C0.33 0.66 0.66 1.32 1 2 C3.02463255 2.65213292 3.02463255 2.65213292 5 3 C4.34 3 3.68 3 3 3 C2.34 4.65 1.68 6.3 1 8 C-1 5 -1 5 -0.625 2.3125 C-0.41875 1.549375 -0.2125 0.78625 0 0 Z " fill="#F7AB15" transform="translate(339,275)"/>
<path d="M0 0 C0 1.98 0 3.96 0 6 C-2.475 5.01 -2.475 5.01 -5 4 C-4.67 3.01 -4.34 2.02 -4 1 C-1 0 -1 0 0 0 Z " fill="#F1D761" transform="translate(352,358)"/>
<path d="M0 0 C0.33 0 0.66 0 1 0 C1.6875 3.3125 1.6875 3.3125 2 7 C0.5625 8.9375 0.5625 8.9375 -1 10 C-2.23076923 4.58461538 -2.23076923 4.58461538 -1.0625 1.625 C-0.5365625 0.820625 -0.5365625 0.820625 0 0 Z " fill="#E9C73C" transform="translate(353,353)"/>
<path d="M0 0 C0.66 0.33 1.32 0.66 2 1 C1.1875 3.9375 1.1875 3.9375 0 7 C-0.99 7.33 -1.98 7.66 -3 8 C-3 6.35 -3 4.7 -3 3 C-2.34 3 -1.68 3 -1 3 C-0.67 2.01 -0.34 1.02 0 0 Z " fill="#FBA405" transform="translate(84,273)"/>
<path d="M0 0 C0.66 1.32 1.32 2.64 2 4 C0.625 5.5 0.625 5.5 -1 7 C-1.66 7 -2.32 7 -3 7 C-3.33 7.99 -3.66 8.98 -4 10 C-3.5205537 5.78087253 -2.83374881 3.20336822 0 0 Z " fill="#F3B319" transform="translate(84,269)"/>
<path d="M0 0 C1.31611677 0.95336021 2.62778961 1.91285774 3.9375 2.875 C4.66839844 3.40867187 5.39929688 3.94234375 6.15234375 4.4921875 C8 6 8 6 9 8 C8.1646875 7.566875 8.1646875 7.566875 7.3125 7.125 C4.91505355 5.9586747 2.48403061 4.9660119 0 4 C0 2.68 0 1.36 0 0 Z " fill="#F0AC2D" transform="translate(194,272)"/>
<path d="M0 0 C0.99 0.33 1.98 0.66 3 1 C2.67 2.65 2.34 4.3 2 6 C1.01 5.67 0.02 5.34 -1 5 C-0.67 3.35 -0.34 1.7 0 0 Z " fill="#E6CC6F" transform="translate(227,357)"/>
<path d="M0 0 C0.66 0 1.32 0 2 0 C2 1.32 2 2.64 2 4 C-1.63 4 -5.26 4 -9 4 C-9 3.67 -9 3.34 -9 3 C-5.92382812 2.70703125 -5.92382812 2.70703125 -2.84765625 2.4140625 C-2.23792969 2.27742188 -1.62820312 2.14078125 -1 2 C-0.67 1.34 -0.34 0.68 0 0 Z " fill="#E5CD61" transform="translate(174,356)"/>
<path d="M0 0 C0.66 0 1.32 0 2 0 C2 1.32 2 2.64 2 4 C-1.63 4 -5.26 4 -9 4 C-9 3.67 -9 3.34 -9 3 C-5.92382812 2.70703125 -5.92382812 2.70703125 -2.84765625 2.4140625 C-2.23792969 2.27742188 -1.62820312 2.14078125 -1 2 C-0.67 1.34 -0.34 0.68 0 0 Z " fill="#E1CB67" transform="translate(129,356)"/>
<path d="M0 0 C0.66 0.33 1.32 0.66 2 1 C0.8141763 4.37503669 -0.27573689 6.64722731 -3 9 C-2.67 6.69 -2.34 4.38 -2 2 C-1.34 2 -0.68 2 0 2 C0 1.34 0 0.68 0 0 Z " fill="#F5A925" transform="translate(409,291)"/>
<path d="M0 0 C2.475 0.495 2.475 0.495 5 1 C4.01 2.485 4.01 2.485 3 4 C2.67 4.99 2.34 5.98 2 7 C1.34 4.69 0.68 2.38 0 0 Z " fill="#EFCB34" transform="translate(212,347)"/>
<path d="M0 0 C0.66 0 1.32 0 2 0 C2 0.66 2 1.32 2 2 C2.99 2 3.98 2 5 2 C5 2.99 5 3.98 5 5 C3.68 5 2.36 5 1 5 C0.67 3.35 0.34 1.7 0 0 Z " fill="#F7A817" transform="translate(377,304)"/>
<path d="M0 0 C0.66 0 1.32 0 2 0 C0.375 5.75 0.375 5.75 -3 8 C-3.33 7.01 -3.66 6.02 -4 5 C-3.34 5 -2.68 5 -2 5 C-2 4.34 -2 3.68 -2 3 C-1.34 3 -0.68 3 0 3 C0 2.01 0 1.02 0 0 Z " fill="#EFAA1D" transform="translate(135,295)"/>
<path d="M0 0 C0.66 0.33 1.32 0.66 2 1 C2.625 3.5625 2.625 3.5625 3 6 C1.02 6.99 1.02 6.99 -1 8 C-0.67 5.36 -0.34 2.72 0 0 Z " fill="#F1AA1E" transform="translate(401,280)"/>
<path d="M0 0 C-0.75 1.9375 -0.75 1.9375 -2 4 C-4.125 4.75 -4.125 4.75 -6 5 C-3.74193548 0 -3.74193548 0 0 0 Z " fill="#F8AD16" transform="translate(119,238)"/>
<path d="M0 0 C-4.75 4 -4.75 4 -7 4 C-7.33 3.01 -7.66 2.02 -8 1 C-5.29120665 -0.35439668 -2.99066732 -0.06501451 0 0 Z " fill="#F4A81E" transform="translate(137,235)"/>
<path d="M0 0 C0.66 0 1.32 0 2 0 C1.67 1.98 1.34 3.96 1 6 C-0.65 6.33 -2.3 6.66 -4 7 C-3.01 6.67 -2.02 6.34 -1 6 C-0.67 4.02 -0.34 2.04 0 0 Z " fill="#E6C34A" transform="translate(300,217)"/>
<path d="M0 0 C0.99 0.33 1.98 0.66 3 1 C2.67 2.65 2.34 4.3 2 6 C1.34 6 0.68 6 0 6 C0 4.02 0 2.04 0 0 Z " fill="#E4CF72" transform="translate(303,357)"/>
<path d="" fill="#BFAA7F" transform="translate(0,0)"/>
</svg>
